<?xml version="1.0" standalone="no"?>
<!DOCTYPE svg PUBLIC "-//W3C//DTD SVG 20010904//EN"
 "http://www.w3.org/TR/2001/REC-SVG-20010904/DTD/svg10.dtd">
<svg version="1.0" xmlns="http://www.w3.org/2000/svg"
 width="1024.000000pt" height="565.000000pt" viewBox="0 0 1024.000000 565.000000"
 preserveAspectRatio="xMidYMid meet">

<g transform="translate(0.000000,565.000000) scale(0.100000,-0.100000)"
fill="#000000" stroke="none">
<path d="M2815 4070 c-382 -69 -705 -287 -905 -610 -88 -141 -153 -311 -181
-470 -14 -82 -18 -357 -6 -404 8 -29 9 -27 56 55 47 82 48 86 55 194 12 199
60 358 160 530 48 84 79 128 122 175 18 19 48 60 67 91 69 109 171 181 317
225 41 12 105 34 141 47 204 78 466 91 689 34 101 -26 232 -78 271 -108 23
-18 8 -19 -517 -19 -499 0 -545 -1 -597 -19 -162 -53 -270 -167 -312 -328 -16
-61 -22 -458 -7 -451 4 2 38 14 75 28 l67 25 0 166 c0 266 39 349 196 421 49
23 52 23 557 26 571 3 526 10 488 -73 -27 -60 -67 -103 -125 -133 l-51 -27
-412 -3 -413 -3 0 -154 0 -155 90 0 90 0 0 85 0 85 293 0 c327 0 388 8 487 61
116 62 209 199 218 321 3 42 8 58 19 58 8 0 67 -53 132 -117 215 -216 321
-432 356 -728 22 -186 -5 -391 -71 -555 -44 -110 -117 -242 -126 -228 -4 7 -8
213 -8 458 0 245 0 451 0 458 0 9 -44 12 -188 12 l-188 0 -35 -47 c-19 -27
-116 -160 -214 -297 -144 -200 -181 -245 -189 -233 -6 8 -101 139 -211 291
l-200 277 -220 -4 c-196 -3 -228 -6 -290 -26 -221 -72 -416 -252 -509 -471
-45 -105 -66 -238 -66 -415 0 -190 15 -241 94 -320 113 -113 298 -112 407 2
l33 33 238 0 238 0 0 470 0 470 -90 0 -90 0 0 -390 0 -390 -120 0 -120 0 0
400 c0 313 -3 400 -12 400 -7 0 -41 -18 -75 -40 l-63 -39 0 -353 c0 -225 -4
-367 -11 -393 -14 -51 -65 -102 -112 -110 -54 -10 -121 25 -150 79 -20 38 -22
54 -21 196 2 181 16 254 74 376 69 150 162 247 299 316 l76 38 200 0 200 -1
81 -112 c304 -422 427 -586 434 -582 5 3 109 144 231 313 122 169 234 323 248
342 l26 35 5 -460 c5 -443 6 -462 26 -506 28 -60 87 -125 136 -150 49 -25 150
-35 205 -20 75 20 134 70 173 146 l35 68 5 271 c3 149 8 276 12 281 13 21 30
183 29 291 -1 543 -346 1036 -861 1231 -212 81 -460 103 -685 63z m1125 -1745
c3 -198 9 -368 13 -377 10 -20 67 -41 88 -33 8 3 39 39 69 80 30 41 57 75 59
75 2 0 1 -29 -1 -65 -9 -106 -75 -167 -164 -151 -43 9 -99 63 -108 106 -8 44
-8 715 1 724 4 4 14 5 23 4 13 -3 16 -49 20 -363z"/>
<path d="M4690 3050 l0 -370 90 0 90 0 0 135 0 135 170 0 170 0 0 70 0 70
-170 0 -170 0 0 100 0 100 195 0 195 0 0 65 0 65 -285 0 -285 0 0 -370z"/>
<path d="M5388 3050 l2 -370 85 0 85 0 0 105 0 105 83 0 82 0 69 -105 70 -105
94 0 c72 0 92 3 86 13 -4 6 -41 61 -82 120 -41 60 -72 109 -71 110 94 60 124
98 141 180 23 107 -16 206 -102 265 -65 44 -119 52 -339 52 l-206 0 3 -370z
m341 233 c52 -5 69 -12 97 -38 30 -28 34 -38 34 -82 0 -97 -55 -133 -205 -133
l-95 0 0 123 c0 68 3 127 7 130 8 9 82 9 162 0z"/>
<path d="M6411 3388 c-8 -18 -47 -105 -87 -193 -39 -88 -108 -240 -152 -338
l-80 -178 90 3 91 3 32 75 32 75 177 0 177 0 33 -75 33 -75 92 -3 c109 -3 107
-19 24 157 -30 64 -102 221 -160 349 l-106 232 -91 0 -91 0 -14 -32z m119
-160 c0 -5 23 -62 50 -126 28 -64 50 -120 50 -124 0 -4 -52 -8 -115 -8 -63 0
-115 3 -115 8 0 20 114 271 121 266 5 -3 9 -10 9 -16z"/>
<path d="M7030 3050 l0 -370 80 0 80 0 0 210 c0 116 3 210 8 210 4 0 54 -77
111 -171 l103 -170 41 3 41 3 99 165 c54 91 102 169 108 175 5 5 9 -72 9 -208
l0 -217 84 0 85 0 0 370 1 370 -77 0 -78 0 -62 -103 c-34 -56 -93 -156 -132
-221 -39 -65 -72 -121 -74 -123 -2 -2 -49 70 -103 159 -54 90 -115 190 -135
223 l-36 60 -77 3 -76 3 0 -371z"/>
<path d="M8262 3353 c-16 -38 -89 -198 -162 -358 -72 -159 -134 -296 -137
-302 -4 -10 17 -13 84 -13 l89 0 34 80 34 80 176 0 176 0 34 -80 34 -80 93 0
c52 0 92 3 90 8 -3 4 -15 30 -27 57 -70 156 -177 392 -214 470 -23 50 -53 116
-66 148 l-24 57 -92 0 -91 0 -31 -67z m235 -370 c4 -10 -22 -13 -111 -13 -130
0 -131 1 -96 70 11 21 31 68 44 104 47 123 41 124 103 -20 30 -71 57 -135 60
-141z"/>
<path d="M1930 2164 c0 -117 1 -122 29 -165 17 -24 40 -54 53 -66 20 -19 27
-20 48 -10 14 7 27 26 32 46 8 30 5 40 -32 92 -22 32 -61 95 -85 141 l-45 83
0 -121z"/>
<path d="M3648 1735 c-107 -65 -203 -105 -334 -141 -89 -25 -116 -28 -269 -28
-154 -1 -180 2 -271 26 -147 39 -282 97 -377 162 -54 37 -106 36 -135 -4 l-22
-29 56 -42 c73 -54 248 -141 345 -173 251 -81 541 -83 780 -5 94 31 237 100
326 159 l78 52 -36 39 c-20 21 -40 39 -45 38 -5 0 -48 -24 -96 -54z"/>
</g>
</svg>
