<?xml version="1.0" standalone="no"?>
<!DOCTYPE svg PUBLIC "-//W3C//DTD SVG 20010904//EN"
 "http://www.w3.org/TR/2001/REC-SVG-20010904/DTD/svg10.dtd">
<svg version="1.0" xmlns="http://www.w3.org/2000/svg"
 width="1024.000000pt" height="565.000000pt" viewBox="0 0 1024.000000 565.000000"
 preserveAspectRatio="xMidYMid meet">
<metadata>
Created by potrace 1.16, written by Peter Selinger 2001-2019
</metadata>
<g transform="translate(0.000000,565.000000) scale(0.100000,-0.100000)"
fill="#000000" stroke="none">
<path d="M2845 4074 c-148 -23 -266 -62 -410 -134 -338 -169 -603 -506 -690
-878 -32 -136 -42 -441 -15 -491 5 -9 22 15 52 70 43 80 45 89 51 190 13 214
76 403 200 596 26 40 62 89 80 110 19 21 52 66 75 99 72 107 184 187 302 214
30 7 78 23 106 36 170 75 447 104 643 68 129 -23 186 -42 291 -93 l95 -46
-550 -5 c-536 -5 -551 -6 -607 -27 -130 -49 -223 -140 -276 -267 -24 -58 -26
-73 -30 -283 -2 -123 -2 -223 1 -223 3 0 37 12 76 26 l69 26 4 191 3 192 34
63 c23 42 49 74 80 96 95 68 64 64 626 67 l510 2 -2 -33 c-3 -63 -97 -164
-181 -192 -27 -9 -145 -13 -432 -14 l-395 -2 -3 -156 -3 -157 88 3 88 3 3 88
3 87 302 0 c328 0 372 5 472 56 125 64 225 216 225 340 0 24 4 44 9 44 16 0
105 -75 168 -143 202 -216 300 -436 334 -744 10 -90 10 -130 0 -200 -20 -132
-48 -246 -82 -331 -34 -86 -108 -222 -121 -222 -5 0 -8 206 -8 458 0 251 0
463 0 470 0 9 -44 12 -188 12 l-188 0 -180 -251 c-98 -137 -192 -270 -209
-294 -16 -25 -33 -45 -37 -45 -4 0 -62 77 -130 171 -68 94 -158 219 -201 278
-44 58 -81 112 -84 119 -7 16 -347 17 -425 1 -254 -51 -458 -206 -573 -434
-74 -148 -89 -224 -90 -460 0 -228 6 -253 84 -333 110 -113 289 -116 404 -7
l48 46 232 -1 232 -1 0 468 0 468 -87 3 -88 3 -2 -393 -3 -393 -115 0 -115 0
-3 402 -2 402 -28 -10 c-15 -6 -48 -24 -74 -41 l-48 -30 -1 -362 c0 -316 -2
-367 -17 -406 -45 -115 -191 -121 -256 -10 -19 32 -21 50 -20 191 2 185 18
269 74 384 37 78 99 166 150 213 39 36 151 107 198 125 34 14 79 17 235 17
189 0 192 0 206 -22 15 -24 412 -572 467 -645 l33 -43 41 58 c23 31 62 86 88
122 26 36 96 134 157 217 60 84 135 188 165 230 l55 77 5 -460 5 -459 33 -68
c109 -221 412 -214 515 11 19 43 21 72 28 317 4 184 12 299 23 360 19 103 22
287 6 390 -52 341 -210 622 -469 836 -296 246 -666 350 -1036 293z m1095
-1754 l0 -361 25 -24 c44 -44 75 -35 134 41 28 37 51 71 51 75 0 5 5 9 10 9 6
0 10 -23 10 -50 0 -77 -41 -142 -97 -157 -41 -10 -104 4 -130 29 -51 47 -53
60 -53 443 l0 355 25 0 25 0 0 -360z"/>
<path d="M4690 3050 l0 -370 89 0 90 0 0 133 -1 132 171 3 171 2 0 70 0 70
-170 0 -170 0 0 95 0 95 195 0 195 0 0 70 0 70 -285 0 -285 0 0 -370z"/>
<path d="M5390 3050 l0 -370 85 0 85 0 0 105 0 105 83 0 82 0 68 -105 67 -105
96 0 c74 0 93 3 87 13 -4 6 -40 59 -81 117 l-73 105 22 15 c108 73 151 185
115 303 -26 87 -78 136 -180 170 -40 14 -90 17 -253 17 l-203 0 0 -370z m410
215 c55 -28 77 -113 45 -174 -23 -46 -69 -61 -184 -61 l-101 0 0 125 0 125
105 0 c75 0 115 -4 135 -15z"/>
<path d="M6420 3410 c0 -6 -13 -39 -29 -73 -66 -141 -101 -219 -101 -223 0 -2
-15 -36 -34 -76 -56 -122 -156 -347 -156 -353 0 -3 39 -4 87 -3 l86 3 32 75
32 75 177 0 177 0 33 -75 32 -75 92 -3 c51 -1 92 -1 92 2 0 5 -33 76 -157 346
-21 47 -70 154 -109 237 l-69 153 -92 0 c-58 0 -93 -4 -93 -10z m159 -306 c28
-66 51 -123 51 -127 0 -4 -52 -7 -115 -7 -63 0 -115 4 -115 8 0 5 18 51 41
103 22 52 47 109 55 128 9 20 18 31 23 25 5 -5 32 -63 60 -130z"/>
<path d="M7030 3050 l0 -370 80 0 80 0 0 210 c0 116 3 210 8 210 4 -1 40 -56
81 -123 144 -237 128 -217 175 -217 l41 0 90 152 c50 83 94 162 98 175 21 57
27 11 27 -192 l0 -215 83 0 82 0 2 370 3 370 -78 0 -77 -1 -133 -224 c-74
-124 -137 -225 -140 -225 -4 0 -16 17 -28 38 -32 56 -114 195 -184 310 l-62
102 -74 0 -74 0 0 -370z"/>
<path d="M8285 3399 c-4 -11 -26 -62 -50 -112 -49 -106 -183 -402 -195 -432
-5 -11 -24 -55 -44 -98 l-36 -78 91 3 90 3 26 65 c14 36 30 71 36 78 7 9 55
12 179 12 l170 0 36 -80 37 -80 88 0 c48 0 87 4 87 9 0 7 -36 90 -100 226 -10
22 -39 87 -65 145 -26 58 -66 146 -90 196 -23 50 -48 107 -54 127 l-13 37 -93
0 c-86 0 -94 -2 -100 -21z m155 -286 c30 -70 57 -131 58 -135 2 -4 -51 -8
-117 -8 l-121 0 26 58 c14 31 40 92 57 135 17 42 34 77 37 77 3 0 30 -57 60
-127z"/>
<path d="M4790 2459 c-90 -41 -124 -98 -118 -196 4 -69 20 -97 80 -146 63 -51
206 -49 254 4 16 18 16 21 2 35 -14 14 -19 13 -49 -5 -42 -26 -108 -27 -156
-4 -50 23 -73 66 -73 135 0 47 5 62 27 89 51 60 124 74 195 38 40 -20 42 -20
55 -3 17 24 3 39 -54 58 -62 21 -109 20 -163 -5z"/>
<path d="M5222 2454 c-68 -34 -104 -86 -110 -158 -6 -73 11 -117 62 -164 98
-91 270 -62 326 53 33 68 26 160 -16 212 -64 80 -171 103 -262 57z m168 -43
c47 -24 74 -73 74 -130 -1 -93 -58 -151 -149 -151 -88 0 -145 57 -145 146 0
117 118 190 220 135z"/>
<path d="M5660 2280 l0 -200 25 0 24 0 3 145 3 145 115 -143 c73 -90 123 -143
137 -145 20 -3 21 2 28 110 3 62 5 151 3 198 -3 84 -3 85 -30 88 l-27 3 -3
-148 -3 -148 -118 148 c-79 98 -124 147 -138 147 -18 0 -19 -9 -19 -200z"/>
<path d="M6205 2466 c-50 -23 -70 -53 -70 -103 0 -55 22 -76 104 -98 87 -24
126 -46 129 -76 7 -61 -99 -85 -188 -41 l-41 20 -11 -21 c-8 -16 -7 -23 8 -34
47 -35 173 -44 229 -17 41 19 69 73 60 114 -9 39 -46 67 -114 86 -31 8 -68 20
-84 26 -28 11 -44 46 -33 73 13 35 101 46 162 20 33 -14 35 -13 43 8 8 19 4
24 -23 36 -44 20 -135 23 -171 7z"/>
<path d="M6550 2337 c0 -150 8 -184 54 -227 23 -20 39 -25 99 -28 62 -3 77 -1
107 20 61 41 71 73 68 233 l-3 140 -25 0 -25 0 -5 -148 c-5 -148 -5 -149 -33
-173 -54 -46 -154 -25 -176 37 -6 18 -11 90 -11 160 l0 129 -25 -2 -25 -2 0
-139z"/>
<path d="M7037 2474 c-4 -4 -7 -94 -7 -201 l0 -194 133 3 c128 3 132 4 135 26
3 22 2 22 -102 22 l-106 0 -2 173 c-3 164 -4 172 -23 175 -12 2 -24 0 -28 -4z"/>
<path d="M7324 2471 c-2 -2 -4 -13 -4 -23 0 -16 9 -18 70 -18 l70 0 0 -175 0
-175 25 0 c28 0 28 1 29 240 l1 105 68 3 c62 3 67 5 67 25 0 22 -2 22 -161 22
-88 0 -163 -2 -165 -4z"/>
<path d="M7767 2474 c-4 -4 -7 -95 -7 -201 l0 -194 26 3 26 3 1 195 c2 189 1
195 -18 198 -12 2 -24 0 -28 -4z"/>
<path d="M7980 2280 l0 -200 25 0 25 0 0 142 0 142 28 -27 c15 -14 68 -78 117
-141 66 -85 96 -115 113 -116 19 0 22 5 22 38 1 20 2 105 4 187 1 83 1 156 -2
163 -2 6 -15 12 -28 12 l-23 0 -3 -147 -3 -147 -118 147 c-79 98 -125 147
-138 147 -18 0 -19 -9 -19 -200z"/>
<path d="M8576 2465 c-49 -17 -102 -69 -117 -113 -18 -56 -7 -144 25 -192 40
-60 98 -84 191 -78 44 3 81 11 98 23 26 16 27 21 27 96 0 78 0 79 -25 79 -24
0 -25 -2 -25 -65 0 -61 -2 -66 -26 -75 -66 -25 -158 -2 -197 51 -52 71 -21
185 61 221 52 23 115 20 158 -9 25 -16 27 -16 40 2 18 25 5 39 -53 59 -56 19
-105 20 -157 1z"/>
<path d="M1931 2161 l-1 -123 46 -64 c47 -67 69 -77 96 -46 31 35 31 70 0 110
-28 35 -105 168 -129 222 -10 20 -12 2 -12 -99z"/>
<path d="M3680 1748 c-173 -107 -383 -178 -565 -192 -220 -17 -484 51 -696
180 -74 44 -129 47 -157 7 l-20 -28 27 -20 c133 -101 294 -177 468 -221 145
-37 383 -45 519 -19 111 22 237 63 334 110 79 39 230 133 230 144 0 4 -17 23
-37 43 l-38 36 -65 -40z"/>
</g>
</svg>
