<?xml version="1.0" standalone="no"?>
<!DOCTYPE svg PUBLIC "-//W3C//DTD SVG 20010904//EN"
 "http://www.w3.org/TR/2001/REC-SVG-20010904/DTD/svg10.dtd">
<svg version="1.0" xmlns="http://www.w3.org/2000/svg"
 width="1024.000000pt" height="1024.000000pt" viewBox="0 0 1024.000000 1024.000000"
 preserveAspectRatio="xMidYMid meet">
<metadata>
Created by potrace 1.16, written by Peter Selinger 2001-2019
</metadata>
<g transform="translate(0.000000,1024.000000) scale(0.100000,-0.100000)"
fill="#000000" stroke="none">
<path d="M4785 8719 c-467 -48 -948 -207 -1336 -441 -972 -587 -1558 -1564
-1650 -2748 -15 -194 -6 -483 21 -696 32 -254 27 -243 70 -128 53 141 83 206
145 315 l55 95 0 165 c0 707 215 1369 632 1945 48 66 114 168 146 227 79 140
140 224 237 326 204 212 483 364 770 416 50 10 155 39 235 65 514 172 972 216
1450 139 297 -48 553 -128 815 -256 l120 -58 -1250 -5 c-1150 -5 -1257 -7
-1335 -23 -283 -60 -499 -174 -690 -366 -220 -221 -350 -497 -396 -841 -15
-117 -21 -1034 -6 -1028 10 4 237 114 270 131 l23 12 0 356 c-1 196 3 400 9
455 31 287 137 521 320 705 124 125 279 215 451 261 l84 23 1239 2 c1082 3
1238 2 1233 -11 -3 -8 -11 -34 -17 -58 -14 -52 -79 -183 -119 -241 -55 -80
-171 -180 -266 -229 -171 -88 -103 -82 -965 -88 -693 -6 -771 -8 -825 -24
-189 -56 -333 -180 -421 -363 -54 -112 -64 -177 -64 -435 l0 -228 140 0 c77 0
143 -1 147 -2 4 -2 8 96 9 217 2 161 6 233 17 267 34 108 105 189 206 237 l56
26 765 6 c844 6 797 2 972 73 293 118 525 364 628 666 27 79 60 246 60 301 l0
41 53 -38 c402 -292 746 -695 968 -1136 28 -56 49 -84 71 -96 117 -64 284
-204 369 -309 32 -41 59 -71 59 -66 0 19 -95 297 -135 394 -328 801 -961 1449
-1755 1799 -282 124 -643 217 -969 250 -119 12 -528 11 -646 -1z"/>
<path d="M7109 6634 c-143 -26 -321 -103 -442 -192 -89 -65 -238 -213 -330
-325 -84 -105 -343 -482 -592 -865 -82 -127 -153 -230 -156 -229 -4 1 -41 48
-84 105 -154 205 -396 429 -590 544 -417 248 -952 331 -1467 227 -753 -152
-1325 -733 -1503 -1527 -56 -246 -59 -293 -59 -887 -1 -615 -2 -607 71 -755
27 -56 58 -96 118 -156 122 -121 246 -174 415 -175 104 -1 160 12 269 62 161
75 298 253 336 437 13 63 15 244 15 1238 l0 1165 -57 -37 c-74 -47 -133 -92
-192 -146 l-46 -43 -5 -1060 -5 -1060 -23 -56 c-29 -73 -77 -128 -143 -164
-49 -27 -63 -30 -144 -30 -82 0 -95 3 -145 31 -32 18 -71 52 -93 80 -63 83
-68 112 -65 440 l3 289 57 -107 c69 -130 196 -321 296 -445 41 -51 76 -93 78
-93 2 0 11 15 21 33 14 26 18 64 21 212 l4 180 -60 95 c-33 52 -85 141 -116
196 -118 211 -259 576 -258 664 2 137 144 481 273 665 80 113 299 333 401 403
309 211 723 323 1087 292 358 -29 630 -130 901 -333 169 -126 313 -283 500
-547 179 -251 203 -281 210 -273 4 4 87 132 185 283 278 431 634 963 735 1100
217 292 420 437 664 471 153 21 343 -19 481 -102 174 -105 312 -297 373 -518
l27 -96 0 -535 0 -535 -28 -110 c-87 -348 -240 -711 -426 -1010 l-62 -100 3
-190 c3 -132 8 -198 18 -217 7 -16 16 -28 19 -28 10 0 123 148 203 265 93 136
123 185 209 350 l69 130 0 -345 c0 -378 -5 -420 -57 -494 -40 -57 -110 -103
-183 -122 -70 -18 -123 -14 -204 12 -67 23 -156 112 -187 190 l-24 59 -3 1354
-2 1353 -88 -4 c-163 -9 -306 -81 -433 -216 -69 -74 -148 -190 -690 -1014
-517 -785 -599 -908 -607 -908 -11 0 -34 31 -352 480 -123 173 -274 385 -335
470 -61 85 -174 243 -250 350 -279 392 -354 481 -473 558 -110 71 -182 94
-309 100 l-113 5 -2 -1254 c-1 -1040 -4 -1794 -7 -1831 -2 -15 -19 -7 -147 70
-124 74 -283 186 -369 259 l-39 33 -38 -75 c-21 -42 -56 -99 -77 -128 l-40
-52 21 -22 c26 -28 218 -165 323 -230 407 -254 816 -400 1315 -470 196 -27
666 -24 860 6 402 62 734 170 1062 347 137 73 362 218 473 304 l73 56 -50 67
c-27 36 -62 96 -77 132 l-28 65 -85 -69 c-88 -71 -278 -200 -358 -243 -25 -14
-79 -43 -120 -66 -282 -153 -677 -271 -1049 -312 -121 -14 -452 -13 -572 0
-170 19 -360 53 -479 86 -101 28 -275 86 -285 96 -11 10 -15 2828 -3 2828 15
0 122 -130 221 -268 149 -207 1178 -1646 1273 -1780 l45 -63 107 163 c60 90
153 231 207 313 54 83 171 260 260 395 325 493 456 691 645 980 106 162 214
322 239 355 l46 60 5 -1160 c6 -1298 0 -1190 81 -1354 74 -150 216 -267 384
-317 82 -25 258 -25 340 0 175 52 308 163 384 318 81 165 75 59 79 1398 3
1257 -2 1481 -38 1644 -91 410 -356 713 -735 843 -152 52 -347 66 -506 37z"/>
</g>
</svg>
